# MagicaVoxel @ Ephtracy

# group
o 

# material
mtllib comoda 1.mtl
usemtl palette

# normals
vn -1 0 0
vn 1 0 0
vn 0 0 1
vn 0 0 -1
vn 0 -1 0
vn 0 1 0

# texcoords
vt 0.373047 0.5
vt 0.396484 0.5
vt 0.537109 0.5

# verts
v 1.7 2 -2.7
v 1.7 2 -4.9
v 1.7 2.1 -2.8
v 1.7 2.1 -4.8
v 1.7 4.4 -2.5
v 1.7 4.4 -2.7
v 1.7 4.4 -2.8
v 1.7 4.4 -4.8
v 1.7 4.5 -2.5
v 1.7 4.5 -4.9
v 1.9 2.2 -2.6
v 1.9 2.2 -2.7
v 1.9 2.8 -2.6
v 1.9 2.8 -2.7
v 1.9 2.9 -2.6
v 1.9 2.9 -2.7
v 1.9 3.5 -2.6
v 1.9 3.5 -2.7
v 1.9 3.6 -2.6
v 1.9 3.6 -2.7
v 1.9 4.2 -2.6
v 1.9 4.2 -2.7
v 2.8 2.4 -2.5
v 2.8 2.4 -2.6
v 2.8 2.6 -2.5
v 2.8 2.6 -2.6
v 2.8 3.1 -2.5
v 2.8 3.1 -2.6
v 2.8 3.3 -2.5
v 2.8 3.3 -2.6
v 2.8 3.8 -2.5
v 2.8 3.8 -2.6
v 2.8 4 -2.5
v 2.8 4 -2.6
v 3.3 2.4 -2.5
v 3.3 2.4 -2.6
v 3.3 2.6 -2.5
v 3.3 2.6 -2.6
v 3.3 3.1 -2.5
v 3.3 3.1 -2.6
v 3.3 3.3 -2.5
v 3.3 3.3 -2.6
v 3.3 3.8 -2.5
v 3.3 3.8 -2.6
v 3.3 4 -2.5
v 3.3 4 -2.6
v 4.2 2.2 -2.6
v 4.2 2.2 -2.7
v 4.2 2.8 -2.6
v 4.2 2.8 -2.7
v 4.2 2.9 -2.6
v 4.2 2.9 -2.7
v 4.2 3.5 -2.6
v 4.2 3.5 -2.7
v 4.2 3.6 -2.6
v 4.2 3.6 -2.7
v 4.2 4.2 -2.6
v 4.2 4.2 -2.7
v 4.4 2 -2.7
v 4.4 2 -4.9
v 4.4 2.1 -2.8
v 4.4 2.1 -4.8
v 4.4 4.4 -2.5
v 4.4 4.4 -2.7
v 4.4 4.4 -2.8
v 4.4 4.4 -4.8
v 4.4 4.5 -2.5
v 4.4 4.5 -4.9
v 1.7 4.4 -2.5
v 1.7 4.5 -2.5
v 2.8 2.4 -2.5
v 2.8 2.6 -2.5
v 2.8 3.1 -2.5
v 2.8 3.3 -2.5
v 2.8 3.8 -2.5
v 2.8 4 -2.5
v 3.3 2.4 -2.5
v 3.3 2.6 -2.5
v 3.3 3.1 -2.5
v 3.3 3.3 -2.5
v 3.3 3.8 -2.5
v 3.3 4 -2.5
v 4.4 4.4 -2.5
v 4.4 4.5 -2.5
v 1.9 2.2 -2.6
v 1.9 2.8 -2.6
v 1.9 2.9 -2.6
v 1.9 3.5 -2.6
v 1.9 3.6 -2.6
v 1.9 4.2 -2.6
v 2.8 2.4 -2.6
v 2.8 2.6 -2.6
v 2.8 3.1 -2.6
v 2.8 3.3 -2.6
v 2.8 3.8 -2.6
v 2.8 4 -2.6
v 3.3 2.4 -2.6
v 3.3 2.6 -2.6
v 3.3 3.1 -2.6
v 3.3 3.3 -2.6
v 3.3 3.8 -2.6
v 3.3 4 -2.6
v 4.2 2.2 -2.6
v 4.2 2.8 -2.6
v 4.2 2.9 -2.6
v 4.2 3.5 -2.6
v 4.2 3.6 -2.6
v 4.2 4.2 -2.6
v 1.7 2 -2.7
v 1.7 4.4 -2.7
v 1.8 2.1 -2.7
v 1.8 4.3 -2.7
v 1.8 4.4 -2.7
v 1.9 2.2 -2.7
v 1.9 2.8 -2.7
v 1.9 2.9 -2.7
v 1.9 3.5 -2.7
v 1.9 3.6 -2.7
v 1.9 4.2 -2.7
v 4.2 2.2 -2.7
v 4.2 2.8 -2.7
v 4.2 2.9 -2.7
v 4.2 3.5 -2.7
v 4.2 3.6 -2.7
v 4.2 4.2 -2.7
v 4.3 2.1 -2.7
v 4.3 4.3 -2.7
v 4.3 4.4 -2.7
v 4.4 2 -2.7
v 4.4 4.4 -2.7
v 1.7 2 -4.9
v 1.7 4.5 -4.9
v 1.8 2.1 -4.9
v 1.8 4.4 -4.9
v 4.3 2.1 -4.9
v 4.3 4.4 -4.9
v 4.4 2 -4.9
v 4.4 4.5 -4.9
v 1.7 2 -2.7
v 4.4 2 -2.7
v 1.8 2 -2.8
v 4.3 2 -2.8
v 1.8 2 -4.8
v 4.3 2 -4.8
v 1.7 2 -4.9
v 4.4 2 -4.9
v 1.9 2.2 -2.6
v 4.2 2.2 -2.6
v 1.9 2.2 -2.7
v 4.2 2.2 -2.7
v 2.8 2.4 -2.5
v 3.3 2.4 -2.5
v 2.8 2.4 -2.6
v 3.3 2.4 -2.6
v 1.9 2.9 -2.6
v 4.2 2.9 -2.6
v 1.9 2.9 -2.7
v 4.2 2.9 -2.7
v 2.8 3.1 -2.5
v 3.3 3.1 -2.5
v 2.8 3.1 -2.6
v 3.3 3.1 -2.6
v 1.9 3.6 -2.6
v 4.2 3.6 -2.6
v 1.9 3.6 -2.7
v 4.2 3.6 -2.7
v 2.8 3.8 -2.5
v 3.3 3.8 -2.5
v 2.8 3.8 -2.6
v 3.3 3.8 -2.6
v 1.7 4.4 -2.5
v 4.4 4.4 -2.5
v 1.8 4.4 -2.6
v 4.3 4.4 -2.6
v 1.7 4.4 -2.7
v 1.8 4.4 -2.7
v 4.3 4.4 -2.7
v 4.4 4.4 -2.7
v 2.8 2.6 -2.5
v 3.3 2.6 -2.5
v 2.8 2.6 -2.6
v 3.3 2.6 -2.6
v 1.9 2.8 -2.6
v 4.2 2.8 -2.6
v 1.9 2.8 -2.7
v 4.2 2.8 -2.7
v 2.8 3.3 -2.5
v 3.3 3.3 -2.5
v 2.8 3.3 -2.6
v 3.3 3.3 -2.6
v 1.9 3.5 -2.6
v 4.2 3.5 -2.6
v 1.9 3.5 -2.7
v 4.2 3.5 -2.7
v 2.8 4 -2.5
v 3.3 4 -2.5
v 2.8 4 -2.6
v 3.3 4 -2.6
v 1.9 4.2 -2.6
v 4.2 4.2 -2.6
v 1.9 4.2 -2.7
v 4.2 4.2 -2.7
v 1.7 4.5 -2.5
v 4.4 4.5 -2.5
v 1.8 4.5 -2.6
v 4.3 4.5 -2.6
v 1.8 4.5 -4.8
v 4.3 4.5 -4.8
v 1.7 4.5 -4.9
v 4.4 4.5 -4.9

# faces
f 3/2/1 2/2/1 1/2/1
f 4/2/1 2/2/1 3/2/1
f 6/2/1 3/2/1 1/2/1
f 7/3/1 4/3/1 3/3/1
f 7/2/1 3/2/1 6/2/1
f 8/2/1 2/2/1 4/2/1
f 8/3/1 4/3/1 7/3/1
f 9/2/1 7/2/1 6/2/1
f 9/2/1 6/2/1 5/2/1
f 9/2/1 8/2/1 7/2/1
f 10/2/1 2/2/1 8/2/1
f 10/2/1 8/2/1 9/2/1
f 13/1/1 12/1/1 11/1/1
f 14/1/1 12/1/1 13/1/1
f 17/1/1 16/1/1 15/1/1
f 18/1/1 16/1/1 17/1/1
f 21/1/1 20/1/1 19/1/1
f 22/1/1 20/1/1 21/1/1
f 25/3/1 24/3/1 23/3/1
f 26/3/1 24/3/1 25/3/1
f 29/3/1 28/3/1 27/3/1
f 30/3/1 28/3/1 29/3/1
f 33/3/1 32/3/1 31/3/1
f 34/3/1 32/3/1 33/3/1
f 35/3/2 36/3/2 37/3/2
f 37/3/2 36/3/2 38/3/2
f 39/3/2 40/3/2 41/3/2
f 41/3/2 40/3/2 42/3/2
f 43/3/2 44/3/2 45/3/2
f 45/3/2 44/3/2 46/3/2
f 47/1/2 48/1/2 49/1/2
f 49/1/2 48/1/2 50/1/2
f 51/1/2 52/1/2 53/1/2
f 53/1/2 52/1/2 54/1/2
f 55/1/2 56/1/2 57/1/2
f 57/1/2 56/1/2 58/1/2
f 59/2/2 60/2/2 61/2/2
f 61/2/2 60/2/2 62/2/2
f 59/2/2 61/2/2 64/2/2
f 61/3/2 62/3/2 65/3/2
f 64/2/2 61/2/2 65/2/2
f 62/2/2 60/2/2 66/2/2
f 65/3/2 62/3/2 66/3/2
f 64/2/2 65/2/2 67/2/2
f 63/2/2 64/2/2 67/2/2
f 65/2/2 66/2/2 67/2/2
f 66/2/2 60/2/2 68/2/2
f 67/2/2 66/2/2 68/2/2
f 77/3/3 72/3/3 71/3/3
f 78/3/3 72/3/3 77/3/3
f 79/3/3 74/3/3 73/3/3
f 80/3/3 74/3/3 79/3/3
f 81/3/3 76/3/3 75/3/3
f 82/3/3 76/3/3 81/3/3
f 83/2/3 70/2/3 69/2/3
f 84/2/3 70/2/3 83/2/3
f 91/1/3 86/1/3 85/1/3
f 92/1/3 86/1/3 91/1/3
f 93/1/3 88/1/3 87/1/3
f 94/1/3 88/1/3 93/1/3
f 95/1/3 90/1/3 89/1/3
f 96/1/3 90/1/3 95/1/3
f 97/1/3 91/1/3 85/1/3
f 98/1/3 86/1/3 92/1/3
f 99/1/3 93/1/3 87/1/3
f 100/1/3 88/1/3 94/1/3
f 101/1/3 95/1/3 89/1/3
f 102/1/3 90/1/3 96/1/3
f 103/1/3 97/1/3 85/1/3
f 103/1/3 98/1/3 97/1/3
f 104/1/3 86/1/3 98/1/3
f 104/1/3 98/1/3 103/1/3
f 105/1/3 99/1/3 87/1/3
f 105/1/3 100/1/3 99/1/3
f 106/1/3 88/1/3 100/1/3
f 106/1/3 100/1/3 105/1/3
f 107/1/3 102/1/3 101/1/3
f 107/1/3 101/1/3 89/1/3
f 108/1/3 90/1/3 102/1/3
f 108/1/3 102/1/3 107/1/3
f 111/2/3 110/2/3 109/2/3
f 112/2/3 110/2/3 111/2/3
f 113/2/3 110/2/3 112/2/3
f 114/3/3 112/3/3 111/3/3
f 115/3/3 112/3/3 114/3/3
f 116/3/3 112/3/3 115/3/3
f 117/3/3 112/3/3 116/3/3
f 118/3/3 112/3/3 117/3/3
f 119/3/3 112/3/3 118/3/3
f 120/3/3 114/3/3 111/3/3
f 121/3/3 116/3/3 115/3/3
f 122/3/3 116/3/3 121/3/3
f 123/3/3 118/3/3 117/3/3
f 124/3/3 118/3/3 123/3/3
f 125/3/3 112/3/3 119/3/3
f 126/2/3 111/2/3 109/2/3
f 126/3/3 125/3/3 124/3/3
f 126/3/3 124/3/3 123/3/3
f 126/3/3 122/3/3 121/3/3
f 126/3/3 123/3/3 122/3/3
f 126/3/3 120/3/3 111/3/3
f 126/3/3 121/3/3 120/3/3
f 127/3/3 112/3/3 125/3/3
f 127/3/3 125/3/3 126/3/3
f 127/2/3 113/2/3 112/2/3
f 128/2/3 113/2/3 127/2/3
f 129/2/3 126/2/3 109/2/3
f 129/2/3 127/2/3 126/2/3
f 129/2/3 128/2/3 127/2/3
f 130/2/3 128/2/3 129/2/3
f 131/2/4 132/2/4 133/2/4
f 133/2/4 132/2/4 134/2/4
f 131/2/4 133/2/4 135/2/4
f 133/3/4 134/3/4 135/3/4
f 134/2/4 132/2/4 136/2/4
f 135/3/4 134/3/4 136/3/4
f 131/2/4 135/2/4 137/2/4
f 135/2/4 136/2/4 137/2/4
f 136/2/4 132/2/4 138/2/4
f 137/2/4 136/2/4 138/2/4
f 141/2/5 140/2/5 139/2/5
f 142/2/5 140/2/5 141/2/5
f 143/2/5 141/2/5 139/2/5
f 143/3/5 142/3/5 141/3/5
f 144/2/5 140/2/5 142/2/5
f 144/3/5 142/3/5 143/3/5
f 145/2/5 143/2/5 139/2/5
f 145/2/5 144/2/5 143/2/5
f 146/2/5 140/2/5 144/2/5
f 146/2/5 144/2/5 145/2/5
f 149/1/5 148/1/5 147/1/5
f 150/1/5 148/1/5 149/1/5
f 153/3/5 152/3/5 151/3/5
f 154/3/5 152/3/5 153/3/5
f 157/1/5 156/1/5 155/1/5
f 158/1/5 156/1/5 157/1/5
f 161/3/5 160/3/5 159/3/5
f 162/3/5 160/3/5 161/3/5
f 165/1/5 164/1/5 163/1/5
f 166/1/5 164/1/5 165/1/5
f 169/3/5 168/3/5 167/3/5
f 170/3/5 168/3/5 169/3/5
f 173/2/5 172/2/5 171/2/5
f 174/2/5 172/2/5 173/2/5
f 175/2/5 173/2/5 171/2/5
f 176/3/5 174/3/5 173/3/5
f 176/2/5 173/2/5 175/2/5
f 177/2/5 172/2/5 174/2/5
f 177/3/5 174/3/5 176/3/5
f 178/2/5 172/2/5 177/2/5
f 179/3/6 180/3/6 181/3/6
f 181/3/6 180/3/6 182/3/6
f 183/1/6 184/1/6 185/1/6
f 185/1/6 184/1/6 186/1/6
f 187/3/6 188/3/6 189/3/6
f 189/3/6 188/3/6 190/3/6
f 191/1/6 192/1/6 193/1/6
f 193/1/6 192/1/6 194/1/6
f 195/3/6 196/3/6 197/3/6
f 197/3/6 196/3/6 198/3/6
f 199/1/6 200/1/6 201/1/6
f 201/1/6 200/1/6 202/1/6
f 203/2/6 204/2/6 205/2/6
f 205/2/6 204/2/6 206/2/6
f 203/2/6 205/2/6 207/2/6
f 205/3/6 206/3/6 207/3/6
f 206/2/6 204/2/6 208/2/6
f 207/3/6 206/3/6 208/3/6
f 203/2/6 207/2/6 209/2/6
f 207/2/6 208/2/6 209/2/6
f 208/2/6 204/2/6 210/2/6
f 209/2/6 208/2/6 210/2/6
